<?xml version="1.0" encoding="UTF-8"?>
<svg id="_图层_1" data-name="图层 1" xmlns="http://www.w3.org/2000/svg" viewBox="0 0 192 78">
  <defs>
    <style>
      .cls-1 {
        fill: #040000;
      }

      .cls-2 {
        fill: #e60012;
      }
    </style>
  </defs>
  <g id="TU">
    <g id="Text">
      <path class="cls-1" d="M144.5,40.26c.69-.11,.9-.25,.9-.74v-9.28c0-.49-.21-.62-.9-.73v-.25c.38,0,1.09,.12,1.76,.12s1.35-.12,1.72-.12v.25c-.67,.11-.87,.24-.87,.73v9.28c0,.49,.2,.63,.87,.74v.24c-.37,0-1.07-.11-1.72-.11s-1.38,.11-1.76,.11v-.24Z"/>
      <path class="cls-1" d="M152.43,30.34h-1.59c-.97,0-1.47,.32-1.78,1.87h-.35c.13-.96,.23-1.9,.28-2.85h8.59c.03,.95,.16,1.88,.28,2.85h-.36c-.31-1.56-.8-1.87-1.77-1.87h-1.6v8.9c0,.59,.2,.91,1.1,1.01v.24c-.68,0-1.42-.1-1.94-.1s-1.28,.1-1.95,.1v-.24c.88-.1,1.09-.42,1.09-1.01v-8.9Z"/>
      <path class="cls-1" d="M159.87,30.39c-.28-.5-.5-.77-1.13-.88v-.25c.62,0,1.23,.11,1.84,.11s1.19-.11,1.8-.11v.25c-.56,.02-.82,.12-.82,.41,0,.16,.06,.35,.22,.67l2.35,4.63,2.2-4.66c.13-.28,.13-.45,.13-.59,0-.3-.24-.42-.84-.45v-.25c.44,0,1.15,.11,1.69,.11,.43,0,.84-.11,1.4-.11v.25c-.66,.03-.89,.32-1.3,1.18l-2.7,5.45v3.11c0,.59,.2,.91,1.09,1.01v.24c-.67,0-1.42-.1-1.95-.1s-1.27,.1-1.96,.1v-.24c.89-.1,1.1-.42,1.1-1.01v-3.11l-3.13-5.75Z"/>
      <path class="cls-1" d="M137.55,12.82v.41c0,2.38-1.46,3.27-1.55,3.27-.07,0-.14-.05-.14-.09,0-.17,.42-.77,.42-1.93,0-.56-.13-1.12-.3-1.66h1.58Z"/>
      <rect class="cls-1" x="74.65" y="45.39" width="94.07" height=".65"/>
      <polygon class="cls-1" points="74.65 51.04 75.16 51.04 75.81 54.21 75.81 54.21 76.5 51.04 77.14 51.04 77.83 54.21 77.84 54.21 78.53 51.04 79 51.04 78.15 54.94 77.57 54.94 76.83 51.6 76.81 51.6 76.08 54.94 75.5 54.94 74.65 51.04"/>
      <path class="cls-1" d="M80.94,51.47h-.52v-.55h.52v.55Zm-.49,.63h.46v2.85h-.46v-2.85Z"/>
      <path class="cls-1" d="M82.53,54.4c.22,.13,.44,.21,.67,.21,.36,0,.55-.18,.55-.39s-.12-.35-.37-.47l-.3-.14c-.41-.18-.56-.36-.56-.72,0-.48,.37-.84,.93-.84,.23,0,.44,.04,.59,.11l-.02,.4c-.14-.07-.34-.12-.56-.12-.31,0-.47,.17-.47,.38,0,.23,.17,.36,.49,.49l.16,.07c.35,.14,.57,.37,.57,.73,0,.49-.27,.88-.94,.88-.29,0-.55-.05-.76-.17l.03-.42Z"/>
      <path class="cls-1" d="M87.78,54.42c0,.17,.03,.35,.03,.52h-.45l-.03-.41h0c-.12,.22-.34,.45-.75,.45-.58,0-.97-.47-.97-1.46s.39-1.47,.97-1.47c.33,0,.54,.12,.73,.43h.01v-1.73h.46v3.67Zm-1.09-1.98c-.43,0-.62,.36-.62,1.09s.19,1.08,.62,1.08,.63-.35,.63-1.08-.19-1.09-.63-1.09"/>
      <path class="cls-1" d="M90.43,52.06c.75,0,1.16,.58,1.16,1.47s-.41,1.46-1.16,1.46-1.14-.56-1.14-1.46,.39-1.47,1.14-1.47m0,2.54c.45,0,.65-.35,.65-1.07s-.2-1.09-.65-1.09-.64,.36-.64,1.09,.2,1.07,.64,1.07"/>
      <path class="cls-1" d="M93.13,52.71c0-.2-.01-.41-.02-.61h.47v.42h.02c.14-.32,.39-.47,.71-.47,.3,0,.51,.16,.66,.46,.15-.29,.37-.46,.7-.46,.49,0,.82,.29,.82,.92v1.97h-.47v-1.95c0-.36-.16-.53-.44-.53-.33,0-.54,.21-.54,.72v1.76h-.45v-1.95c0-.36-.16-.53-.44-.53-.34,0-.54,.21-.54,.72v1.76h-.47v-2.23Z"/>
      <path class="cls-1" d="M100.88,52.46c.28,0,.5,.23,.5,.48,0,.28-.22,.5-.5,.5-.26,0-.48-.22-.48-.5,0-.26,.22-.48,.48-.48"/>
      <rect class="cls-1" x="104.88" y="51.05" width=".48" height="3.89"/>
      <path class="cls-1" d="M107.15,52.71c0-.2-.02-.41-.03-.61h.45l.02,.42h0c.16-.32,.39-.47,.73-.47,.5,0,.82,.29,.82,.92v1.97h-.47v-1.83c0-.45-.16-.64-.46-.64-.37,0-.6,.25-.6,.77v1.71h-.47v-2.23Z"/>
      <path class="cls-1" d="M112.1,54.92c-.1,.03-.26,.07-.39,.07-.42,0-.65-.17-.65-.68v-1.82h-.45v-.38h.45v-.59l.46-.15v.74h.58v.38h-.58v1.68c0,.33,.09,.44,.3,.44,.11,0,.21-.03,.28-.07v.39Z"/>
      <path class="cls-1" d="M113.87,53.66c0,.66,.26,.98,.78,.98,.23,0,.49-.13,.66-.24v.42c-.21,.11-.49,.17-.78,.17-.75,0-1.14-.56-1.14-1.46s.39-1.47,1.11-1.47c.63,0,.99,.52,.99,1.35v.26h-1.61Zm1.15-.35c0-.6-.2-.9-.56-.9-.31,0-.58,.23-.59,.9h1.15Z"/>
      <path class="cls-1" d="M119.06,55.07c0,.79-.6,1.11-1.22,1.11-.24,0-.62-.09-.82-.17l.02-.47c.2,.13,.52,.25,.78,.25,.58,0,.81-.34,.81-.84v-.44h-.02c-.18,.33-.44,.48-.74,.48-.6,0-.99-.48-.99-1.46s.39-1.47,1.04-1.47c.27,0,.54,.17,.7,.45h.02v-.41h.47c-.01,.17-.02,.34-.02,.52v2.45Zm-1.1-.48c.44,0,.63-.35,.63-1.07s-.19-1.09-.63-1.09-.61,.36-.61,1.09,.19,1.07,.61,1.07"/>
      <path class="cls-1" d="M120.7,52.71c0-.2,0-.41,0-.61h.45l.02,.44h.01c.15-.34,.39-.49,.8-.49v.47c-.05-.01-.12-.01-.18-.01-.35,0-.61,.31-.61,.93v1.5h-.49v-2.23Z"/>
      <path class="cls-1" d="M123.91,51.47h-.51v-.55h.51v.55Zm-.49,.63h.47v2.85h-.47v-2.85Z"/>
      <path class="cls-1" d="M126.88,54.92c-.11,.03-.28,.07-.39,.07-.43,0-.67-.17-.67-.68v-1.82h-.44v-.38h.44v-.59l.47-.15v.74h.59v.38h-.59v1.68c0,.33,.08,.44,.3,.44,.13,0,.2-.03,.29-.07v.39Z"/>
      <path class="cls-1" d="M129.19,55.53c-.14,.49-.35,.66-.7,.66-.12,0-.23,0-.32-.03l.02-.42c.07,.03,.16,.06,.26,.06,.13,0,.23-.07,.3-.37l.12-.43-.89-2.89h.48l.65,2.32h0l.59-2.32h.46l-.97,3.43Z"/>
      <path class="cls-1" d="M134.29,52.46c.28,0,.5,.23,.5,.48,0,.28-.22,.5-.5,.5s-.48-.22-.48-.5c0-.26,.21-.48,.48-.48"/>
      <polygon class="cls-1" points="138.27 51.04 140.1 51.04 140.1 51.47 138.77 51.47 138.77 52.71 140.04 52.71 140.04 53.13 138.77 53.13 138.77 54.52 140.16 54.52 140.16 54.94 138.27 54.94 138.27 51.04"/>
      <polygon class="cls-1" points="142.34 53.41 141.57 52.1 142.09 52.1 142.64 53.13 143.19 52.1 143.7 52.1 142.91 53.43 143.78 54.94 143.24 54.94 142.61 53.76 142.01 54.94 141.48 54.94 142.34 53.41"/>
      <path class="cls-1" d="M146.86,52.6c-.18-.09-.33-.13-.54-.13-.46,0-.8,.3-.8,1.08,0,.67,.33,1.03,.78,1.03,.23,0,.42-.05,.6-.13v.43c-.13,.06-.38,.11-.6,.11-.85,0-1.25-.62-1.25-1.44,0-.91,.47-1.49,1.27-1.49,.19,0,.41,.04,.58,.11l-.03,.43Z"/>
      <path class="cls-1" d="M148.71,53.66c0,.66,.25,.98,.78,.98,.25,0,.49-.13,.66-.24l.02,.42c-.23,.11-.52,.17-.8,.17-.77,0-1.14-.56-1.14-1.46s.38-1.47,1.1-1.47c.65,0,1,.52,1,1.35v.26h-1.61Zm1.13-.35c0-.6-.17-.9-.55-.9-.3,0-.57,.23-.58,.9h1.13Z"/>
      <rect class="cls-1" x="151.9" y="50.76" width=".47" height="4.18"/>
      <rect class="cls-1" x="154.16" y="50.76" width=".46" height="4.18"/>
      <path class="cls-1" d="M156.7,53.66c0,.66,.26,.98,.79,.98,.23,0,.49-.13,.65-.24l.02,.42c-.22,.11-.51,.17-.81,.17-.75,0-1.13-.56-1.13-1.46s.38-1.47,1.1-1.47c.64,0,.99,.52,.99,1.35v.26h-1.62Zm1.15-.35c0-.6-.19-.9-.56-.9-.3,0-.57,.23-.58,.9h1.15Z"/>
      <path class="cls-1" d="M159.85,52.71c0-.2-.01-.41-.01-.61h.44l.03,.42c.16-.32,.4-.47,.71-.47,.53,0,.84,.29,.84,.92v1.97h-.47v-1.83c0-.45-.17-.64-.47-.64-.36,0-.59,.25-.59,.77v1.71h-.48v-2.23Z"/>
      <path class="cls-1" d="M165.24,52.6c-.18-.09-.32-.13-.55-.13-.46,0-.78,.3-.78,1.08,0,.67,.31,1.03,.77,1.03,.22,0,.41-.05,.57-.13l.03,.43c-.14,.06-.39,.11-.6,.11-.86,0-1.26-.62-1.26-1.44,0-.91,.47-1.49,1.27-1.49,.2,0,.41,.04,.56,.11v.43Z"/>
      <path class="cls-1" d="M167.09,53.66c0,.66,.27,.98,.78,.98,.25,0,.5-.13,.65-.24l.03,.42c-.23,.11-.51,.17-.8,.17-.76,0-1.14-.56-1.14-1.46s.39-1.47,1.11-1.47c.64,0,1,.52,1,1.35v.26h-1.62Zm1.14-.35c0-.6-.19-.9-.55-.9-.31,0-.58,.23-.59,.9h1.14Z"/>
      <path class="cls-1" d="M78.37,13.79h-1.59c-.98,0-1.47,.32-1.78,1.88h-.35c.13-.94,.22-1.88,.29-2.84h8.59c.05,.96,.14,1.89,.27,2.84h-.34c-.32-1.55-.8-1.88-1.78-1.88h-1.59v8.91c0,.58,.21,.9,1.09,1.01v.25c-.68,0-1.43-.1-1.94-.1s-1.27,.1-1.95,.1v-.25c.88-.11,1.09-.42,1.09-1.01V13.79Z"/>
      <path class="cls-1" d="M83.4,23.7c.6-.02,.73-.18,1.09-1.14l3.08-8.49c.06-.17,.11-.36,.11-.56,0-.41-.17-.45-.55-.55v-.25c.42,.06,.88,.11,1.3,.11,.31,0,.62-.05,.92-.11,.08,.49,.29,1.11,.6,1.92l2.93,7.66c.45,1.17,.53,1.29,1.17,1.41v.25c-.47,0-.9-.1-1.35-.1-.69,0-1.35,.1-2.03,.1v-.25c.61-.05,.81-.18,.81-.52,0-.31-.1-.6-.47-1.56l-.71-1.91h-3.75l-.84,2.39c-.17,.48-.29,.92-.29,1.17s.18,.41,.91,.43v.25c-.44,0-.91-.1-1.37-.1-.51,0-1.05,.1-1.56,.1v-.25Zm6.58-4.86l-1.54-4.31h-.02l-1.55,4.31h3.12Z"/>
      <path class="cls-1" d="M93.4,13.85c-.29-.5-.5-.78-1.14-.89v-.25c.64,0,1.25,.11,1.85,.11s1.17-.11,1.79-.11v.25c-.55,.03-.81,.13-.81,.41,0,.17,.05,.36,.2,.67l2.38,4.63,2.2-4.66c.11-.29,.11-.46,.11-.6,0-.29-.24-.41-.83-.45v-.25c.45,0,1.15,.11,1.7,.11,.41,0,.83-.11,1.39-.11v.25c-.67,.04-.9,.34-1.31,1.17l-2.72,5.46v3.11c0,.59,.22,.9,1.11,1.01v.25c-.68,0-1.43-.1-1.95-.1s-1.27,.1-1.94,.1v-.25c.88-.1,1.09-.42,1.09-1.01v-3.11l-3.12-5.73Z"/>
      <path class="cls-1" d="M104.56,13.69c0-.49-.21-.62-.88-.73v-.25c.36,0,1.08,.11,1.73,.11s1.38-.11,1.98-.11v.25c-.9,.07-1.13,.33-1.13,.73v9.18h3.3c1.59,0,2.07-.45,2.23-2.07h.31c-.08,1.02-.12,2.03-.15,3.05h-8.28v-.25c.67-.1,.88-.24,.88-.73V13.69Z"/>
      <path class="cls-1" d="M118.82,12.54c3.86,0,5.39,3.11,5.39,5.66,0,3-2.2,5.91-5.64,5.91s-5.45-2.6-5.45-5.74c0-3.42,3.01-5.83,5.7-5.83m.17,10.4c1.84,0,3.63-1.36,3.63-4.13,0-3.04-2.09-5.09-4.3-5.09-1.27,0-3.6,1.01-3.6,4.21,0,2.46,1.59,5.01,4.27,5.01"/>
      <path class="cls-1" d="M125.99,13.79c0-.48-.21-.62-.89-.72v-.25h5.04c2.32,0,3.14,1.2,3.14,2.64,0,1.77-1.52,2.81-3.18,2.96l3.21,4.14c.52,.66,.95,1.09,1.46,1.14v.25c-.32,0-.62-.1-.9-.1-.46,0-.91,.1-1.35,.1-.19-.06-.38-.34-1.77-2.31l-2.25-2.99c-.2-.28-.34-.44-.34-.52,0-.1,.19-.17,.33-.17,1.81,0,3.07-.75,3.07-2.28,0-1.64-1.47-1.9-2.93-1.9h-.94v9.19c0,.49,.2,.63,.88,.73v.25c-.37,0-1.07-.1-1.74-.1s-1.37,.1-1.74,.1v-.25c.68-.11,.89-.24,.89-.73V13.79Z"/>
      <path class="cls-1" d="M139.92,20.61c.42,1.67,1.71,2.55,3.41,2.55,1.27,0,2.71-.68,2.71-2.23,0-1.39-.83-1.67-2.04-1.91-2.99-.59-4.59-1.13-4.59-3.25,0-1.72,1.79-3.22,4.59-3.22,.74,0,2.27,.2,2.89,.58-.02,.79,.02,1.62,.07,2.41h-.35c-.24-1.51-1.67-2.01-2.88-2.01-1.89,0-2.83,.89-2.83,1.98,0,1.25,.67,1.44,2.8,1.87,2.18,.44,3.83,.88,3.83,3.19,0,1.93-1.46,3.55-4.68,3.55-1.08,0-2.18-.2-3.17-.8,0-.9-.04-1.8-.11-2.7h.35Z"/>
      <path class="cls-1" d="M74.65,29.27c.55,0,1.07,.12,1.55,.12,.88,0,1.43-.12,1.97-.12v.25c-.38,.02-1.01,.12-1.01,.75v6.8c0,1.85,1.12,2.76,2.53,2.76s2.54-.9,2.54-2.76v-6.8c0-.63-.62-.73-1.01-.75v-.25c.54,0,1.09,.12,1.98,.12,.47,0,1.02-.12,1.55-.12v.25c-.73,.06-.82,.12-.82,.88v6.35c0,2.69-1.57,3.94-4.24,3.94s-4.23-1.25-4.23-3.94v-6.35c0-.76-.1-.81-.81-.88v-.25Z"/>
      <path class="cls-1" d="M87.31,30.24c0-.49-.2-.62-.89-.73v-.25c.49,0,.99,.12,1.48,.12s.85-.12,1.29-.12l5.9,8.13h.04v-6.31c0-1.16-.27-1.43-1.23-1.57v-.25c.5,0,.98,.12,1.47,.12,.58,0,1.15-.12,1.72-.12v.25c-.68,.11-.89,.24-.89,.73v10.26h-1.02l-6.76-9.32h-.03v7.48c0,1.17,.26,1.43,1.21,1.59v.25c-.49,0-.98-.11-1.46-.11-.57,0-1.14,.11-1.72,.11v-.25c.69-.11,.89-.24,.89-.74v-9.28Z"/>
      <path class="cls-1" d="M98.45,40.26c.68-.11,.9-.25,.9-.74v-9.28c0-.49-.22-.62-.9-.73v-.25c.37,0,1.09,.12,1.75,.12s1.37-.12,1.73-.12v.25c-.68,.11-.89,.24-.89,.73v9.28c0,.49,.21,.63,.89,.74v.24c-.36,0-1.06-.11-1.73-.11s-1.37,.11-1.75,.11v-.24Z"/>
      <path class="cls-1" d="M103.18,29.27c.69,0,1.4,.12,2.1,.12,.5,0,.99-.12,1.5-.12v.25c-.66,.02-.88,.18-.88,.51,0,.19,.11,.55,.18,.74l2.77,7.72h.05l2.48-7.47c.15-.44,.24-.77,.24-.97,0-.35-.48-.46-.83-.53v-.25c.53,0,1.06,.12,1.59,.12,.43,0,.87-.12,1.3-.12v.25c-.57,.06-.87,.42-1.06,.93l-3.4,10.06h-1.17l-3.82-10.21c-.15-.38-.29-.72-1.07-.78v-.25Z"/>
      <path class="cls-1" d="M115.57,30.35c0-.49-.22-.63-.88-.73v-.24h8.38c0,.85,.04,1.71,.1,2.57h-.34c-.22-1.4-.81-1.6-1.57-1.6h-3.98v3.72h2.47c.62,0,.98-.05,1.09-1.02h.35c-.05,.5-.11,.98-.11,1.48,0,.54,.06,1.01,.11,1.52h-.35c-.11-.96-.47-1.02-1.09-1.02h-2.47v4.39h3.69c1.46,0,2.09-.3,2.4-1.88h.33c-.08,.95-.15,1.9-.17,2.85h-8.83v-.24c.66-.1,.88-.24,.88-.73v-9.07Z"/>
      <path class="cls-1" d="M125.93,30.35c0-.49-.21-.63-.88-.73v-.24h5.03c2.32,0,3.11,1.18,3.11,2.63,0,1.76-1.48,2.82-3.15,2.96l3.2,4.13c.52,.67,.95,1.09,1.46,1.16v.24c-.31,0-.61-.11-.9-.11-.46,0-.91,.11-1.34,.11-.19-.05-.37-.34-1.77-2.3l-2.25-3.01c-.21-.28-.35-.42-.35-.51,0-.1,.2-.17,.34-.17,1.8,0,3.08-.75,3.08-2.28,0-1.64-1.49-1.89-2.95-1.89h-.94v9.17c0,.49,.22,.63,.88,.74v.24c-.35,0-1.06-.11-1.73-.11s-1.36,.11-1.72,.11v-.24c.67-.11,.88-.25,.88-.74v-9.17Z"/>
      <path class="cls-1" d="M136.01,37.17c.41,1.67,1.71,2.53,3.41,2.53,1.28,0,2.71-.67,2.71-2.22,0-1.39-.84-1.67-2.03-1.91-2.99-.59-4.61-1.13-4.61-3.25,0-1.72,1.8-3.21,4.61-3.21,.74,0,2.26,.19,2.89,.56-.02,.8,0,1.63,.05,2.43h-.34c-.25-1.52-1.66-2.02-2.88-2.02-1.87,0-2.84,.9-2.84,1.99,0,1.25,.68,1.44,2.82,1.87,2.18,.43,3.83,.87,3.83,3.18,0,1.93-1.46,3.57-4.7,3.57-1.06,0-2.16-.21-3.16-.82,0-.91-.04-1.8-.11-2.69h.35Z"/>
    </g>
    <polygon class="cls-1" points="23.28 12.84 23.28 26.22 28.14 31.08 28.14 18.32 59.54 18.32 59.54 31.08 64.4 26.22 64.4 12.84 23.28 12.84"/>
    <polygon class="cls-1" points="41.15 21.42 41.15 62.78 43.85 65.46 46.52 62.78 46.52 21.42 41.15 21.42"/>
    <polygon class="cls-2" points="37.64 59.25 32.85 54.47 32.85 21.42 37.64 21.42 37.64 59.25"/>
    <polygon class="cls-2" points="50.04 59.25 54.82 54.47 54.82 21.42 50.04 21.42 50.04 59.25"/>
  </g>
</svg>